<svg width="66" height="10" viewBox="0 0 66 10" fill="none" xmlns="http://www.w3.org/2000/svg">
<path d="M9.60443 3.3375L6.62904 2.90508L5.29897 0.208598C5.26264 0.13477 5.20287 0.0750043 5.12904 0.0386762C4.94389 -0.05273 4.71889 0.0234418 4.62631 0.208598L3.29623 2.90508L0.320841 3.3375C0.23881 3.34922 0.16381 3.3879 0.106388 3.44649C0.0369681 3.51784 -0.00128544 3.61383 3.29835e-05 3.71337C0.00135141 3.81292 0.0421339 3.90786 0.113419 3.97735L2.26615 6.07618L1.75756 9.03985C1.74563 9.10879 1.75326 9.17969 1.77958 9.24452C1.8059 9.30935 1.84986 9.3655 1.90647 9.40662C1.96308 9.44773 2.03008 9.47216 2.09986 9.47714C2.16965 9.48212 2.23944 9.46744 2.30131 9.43477L4.96264 8.03555L7.62397 9.43477C7.69662 9.47344 7.781 9.48633 7.86186 9.47227C8.06576 9.43711 8.20287 9.24376 8.16772 9.03985L7.65912 6.07618L9.81186 3.97735C9.87045 3.91993 9.90912 3.84493 9.92084 3.7629C9.95248 3.55782 9.80951 3.36797 9.60443 3.3375V3.3375Z" fill="#FFD168"/>
<path d="M23.6044 3.3375L20.629 2.90508L19.299 0.208598C19.2626 0.13477 19.2029 0.0750043 19.129 0.0386762C18.9439 -0.05273 18.7189 0.0234418 18.6263 0.208598L17.2962 2.90508L14.3208 3.3375C14.2388 3.34922 14.1638 3.3879 14.1064 3.44649C14.037 3.51784 13.9987 3.61383 14 3.71337C14.0014 3.81292 14.0421 3.90786 14.1134 3.97735L16.2662 6.07618L15.7576 9.03985C15.7456 9.10879 15.7533 9.17969 15.7796 9.24452C15.8059 9.30935 15.8499 9.3655 15.9065 9.40662C15.9631 9.44773 16.0301 9.47216 16.0999 9.47714C16.1697 9.48212 16.2394 9.46744 16.3013 9.43477L18.9626 8.03555L21.624 9.43477C21.6966 9.47344 21.781 9.48633 21.8619 9.47227C22.0658 9.43711 22.2029 9.24376 22.1677 9.03985L21.6591 6.07618L23.8119 3.97735C23.8705 3.91993 23.9091 3.84493 23.9208 3.7629C23.9525 3.55782 23.8095 3.36797 23.6044 3.3375V3.3375Z" fill="#FFD168"/>
<path d="M37.6044 3.3375L34.629 2.90508L33.299 0.208598C33.2626 0.13477 33.2029 0.0750043 33.129 0.0386762C32.9439 -0.05273 32.7189 0.0234418 32.6263 0.208598L31.2962 2.90508L28.3208 3.3375C28.2388 3.34922 28.1638 3.3879 28.1064 3.44649C28.037 3.51784 27.9987 3.61383 28 3.71337C28.0014 3.81292 28.0421 3.90786 28.1134 3.97735L30.2662 6.07618L29.7576 9.03985C29.7456 9.10879 29.7533 9.17969 29.7796 9.24452C29.8059 9.30935 29.8499 9.3655 29.9065 9.40662C29.9631 9.44773 30.0301 9.47216 30.0999 9.47714C30.1697 9.48212 30.2394 9.46744 30.3013 9.43477L32.9626 8.03555L35.624 9.43477C35.6966 9.47344 35.781 9.48633 35.8619 9.47227C36.0658 9.43711 36.2029 9.24376 36.1677 9.03985L35.6591 6.07618L37.8119 3.97735C37.8705 3.91993 37.9091 3.84493 37.9208 3.7629C37.9525 3.55782 37.8095 3.36797 37.6044 3.3375V3.3375Z" fill="#FFD168"/>
<path d="M51.6044 3.3375L48.629 2.90508L47.299 0.208598C47.2626 0.13477 47.2029 0.0750043 47.129 0.0386762C46.9439 -0.05273 46.7189 0.0234418 46.6263 0.208598L45.2962 2.90508L42.3208 3.3375C42.2388 3.34922 42.1638 3.3879 42.1064 3.44649C42.037 3.51784 41.9987 3.61383 42 3.71337C42.0014 3.81292 42.0421 3.90786 42.1134 3.97735L44.2662 6.07618L43.7576 9.03985C43.7456 9.10879 43.7533 9.17969 43.7796 9.24452C43.8059 9.30935 43.8499 9.3655 43.9065 9.40662C43.9631 9.44773 44.0301 9.47216 44.0999 9.47714C44.1697 9.48212 44.2394 9.46744 44.3013 9.43477L46.9626 8.03555L49.624 9.43477C49.6966 9.47344 49.781 9.48633 49.8619 9.47227C50.0658 9.43711 50.2029 9.24376 50.1677 9.03985L49.6591 6.07618L51.8119 3.97735C51.8705 3.91993 51.9091 3.84493 51.9208 3.7629C51.9525 3.55782 51.8095 3.36797 51.6044 3.3375V3.3375Z" fill="#FFD168"/>
<path d="M65.6044 3.3375L62.629 2.90508L61.299 0.208598C61.2626 0.13477 61.2029 0.0750043 61.129 0.0386762C60.9439 -0.05273 60.7189 0.0234418 60.6263 0.208598L59.2962 2.90508L56.3208 3.3375C56.2388 3.34922 56.1638 3.3879 56.1064 3.44649C56.037 3.51784 55.9987 3.61383 56 3.71337C56.0014 3.81292 56.0421 3.90786 56.1134 3.97735L58.2662 6.07618L57.7576 9.03985C57.7456 9.10879 57.7533 9.17969 57.7796 9.24452C57.8059 9.30935 57.8499 9.3655 57.9065 9.40662C57.9631 9.44773 58.0301 9.47216 58.0999 9.47714C58.1697 9.48212 58.2394 9.46744 58.3013 9.43477L60.9626 8.03555L63.624 9.43477C63.6966 9.47344 63.781 9.48633 63.8619 9.47227C64.0658 9.43711 64.2029 9.24376 64.1677 9.03985L63.6591 6.07618L65.8119 3.97735C65.8705 3.91993 65.9091 3.84493 65.9208 3.7629C65.9525 3.55782 65.8095 3.36797 65.6044 3.3375V3.3375Z" fill="#FFD168"/>
</svg>
